<mxfile host="65bd71144e">
    <diagram name="Página-1" id="Z9m40eZqDg4Fgi3BJzhr">
        <mxGraphModel dx="518" dy="499" grid="0" gridSize="10" guides="1" tooltips="1" connect="1" arrows="1" fold="1" page="1" pageScale="1" pageWidth="827" pageHeight="1169" background="#ffffff" math="0" shadow="0">
            <root>
                <mxCell id="0"/>
                <mxCell id="1" parent="0"/>
                <mxCell id="7" style="edgeStyle=orthogonalEdgeStyle;shape=connector;rounded=0;html=1;exitX=0.5;exitY=0;exitDx=0;exitDy=0;entryX=0.322;entryY=1.04;entryDx=0;entryDy=0;entryPerimeter=0;labelBackgroundColor=default;strokeColor=#050505;fontFamily=Helvetica;fontSize=11;fontColor=#050505;endArrow=diamondThin;endFill=0;endSize=24;" parent="1" source="R549FV-vUU6F0KCQ6JtP-2" target="R549FV-vUU6F0KCQ6JtP-45" edge="1">
                    <mxGeometry relative="1" as="geometry"/>
                </mxCell>
                <mxCell id="R549FV-vUU6F0KCQ6JtP-2" value="&lt;span style=&quot;font-size: 14px;&quot;&gt;&lt;font&gt;Artículo&lt;/font&gt;&lt;/span&gt;" style="swimlane;fontStyle=1;align=center;verticalAlign=top;childLayout=stackLayout;horizontal=1;startSize=26;horizontalStack=0;resizeParent=1;resizeParentMax=0;resizeLast=0;collapsible=1;marginBottom=0;whiteSpace=wrap;html=1;fontColor=#050505;strokeColor=#666666;fillColor=#f5f5f5;" parent="1" vertex="1">
                    <mxGeometry x="203" y="672" width="320" height="190" as="geometry">
                        <mxRectangle x="480" y="760" width="90" height="30" as="alternateBounds"/>
                    </mxGeometry>
                </mxCell>
                <mxCell id="R549FV-vUU6F0KCQ6JtP-10" value="- nombre: string" style="text;strokeColor=none;fillColor=none;align=left;verticalAlign=top;spacingLeft=4;spacingRight=4;overflow=hidden;rotatable=0;points=[[0,0.5],[1,0.5]];portConstraint=eastwest;whiteSpace=wrap;html=1;fontColor=#050505;" parent="R549FV-vUU6F0KCQ6JtP-2" vertex="1">
                    <mxGeometry y="26" width="320" height="26" as="geometry"/>
                </mxCell>
                <mxCell id="R549FV-vUU6F0KCQ6JtP-3" value="- codigo: string" style="text;strokeColor=none;fillColor=none;align=left;verticalAlign=top;spacingLeft=4;spacingRight=4;overflow=hidden;rotatable=0;points=[[0,0.5],[1,0.5]];portConstraint=eastwest;whiteSpace=wrap;html=1;fontColor=#050505;" parent="R549FV-vUU6F0KCQ6JtP-2" vertex="1">
                    <mxGeometry y="52" width="320" height="26" as="geometry"/>
                </mxCell>
                <mxCell id="R549FV-vUU6F0KCQ6JtP-9" value="- precio: double" style="text;strokeColor=none;fillColor=none;align=left;verticalAlign=top;spacingLeft=4;spacingRight=4;overflow=hidden;rotatable=0;points=[[0,0.5],[1,0.5]];portConstraint=eastwest;whiteSpace=wrap;html=1;fontColor=#050505;" parent="R549FV-vUU6F0KCQ6JtP-2" vertex="1">
                    <mxGeometry y="78" width="320" height="26" as="geometry"/>
                </mxCell>
                <mxCell id="R549FV-vUU6F0KCQ6JtP-4" value="" style="line;strokeWidth=1;fillColor=none;align=left;verticalAlign=middle;spacingTop=-1;spacingLeft=3;spacingRight=3;rotatable=0;labelPosition=right;points=[];portConstraint=eastwest;strokeColor=#050505;fontColor=#050505;" parent="R549FV-vUU6F0KCQ6JtP-2" vertex="1">
                    <mxGeometry y="104" width="320" height="8" as="geometry"/>
                </mxCell>
                <mxCell id="R549FV-vUU6F0KCQ6JtP-6" value="+ obtenerNombre( ): string" style="text;strokeColor=none;fillColor=none;align=left;verticalAlign=top;spacingLeft=4;spacingRight=4;overflow=hidden;rotatable=0;points=[[0,0.5],[1,0.5]];portConstraint=eastwest;whiteSpace=wrap;html=1;fontColor=#050505;" parent="R549FV-vUU6F0KCQ6JtP-2" vertex="1">
                    <mxGeometry y="112" width="320" height="26" as="geometry"/>
                </mxCell>
                <mxCell id="R549FV-vUU6F0KCQ6JtP-7" value="+ obtenerCodigo( ): string" style="text;strokeColor=none;fillColor=none;align=left;verticalAlign=top;spacingLeft=4;spacingRight=4;overflow=hidden;rotatable=0;points=[[0,0.5],[1,0.5]];portConstraint=eastwest;whiteSpace=wrap;html=1;fontColor=#050505;" parent="R549FV-vUU6F0KCQ6JtP-2" vertex="1">
                    <mxGeometry y="138" width="320" height="26" as="geometry"/>
                </mxCell>
                <mxCell id="R549FV-vUU6F0KCQ6JtP-11" value="+ obtenerPrecio( ): double" style="text;strokeColor=none;fillColor=none;align=left;verticalAlign=top;spacingLeft=4;spacingRight=4;overflow=hidden;rotatable=0;points=[[0,0.5],[1,0.5]];portConstraint=eastwest;whiteSpace=wrap;html=1;fontColor=#050505;" parent="R549FV-vUU6F0KCQ6JtP-2" vertex="1">
                    <mxGeometry y="164" width="320" height="26" as="geometry"/>
                </mxCell>
                <mxCell id="R549FV-vUU6F0KCQ6JtP-12" value="Empleado" style="swimlane;fontStyle=1;align=center;verticalAlign=top;childLayout=stackLayout;horizontal=1;startSize=26;horizontalStack=0;resizeParent=1;resizeParentMax=0;resizeLast=0;collapsible=1;marginBottom=0;whiteSpace=wrap;html=1;strokeColor=#666666;fillColor=#f5f5f5;fontColor=#000000;" parent="1" vertex="1">
                    <mxGeometry x="61" y="430" width="295" height="148" as="geometry"/>
                </mxCell>
                <mxCell id="18" value="- nombre: string" style="text;strokeColor=none;fillColor=none;align=left;verticalAlign=top;spacingLeft=4;spacingRight=4;overflow=hidden;rotatable=0;points=[[0,0.5],[1,0.5]];portConstraint=eastwest;whiteSpace=wrap;html=1;fontColor=#050505;" parent="R549FV-vUU6F0KCQ6JtP-12" vertex="1">
                    <mxGeometry y="26" width="295" height="26" as="geometry"/>
                </mxCell>
                <mxCell id="19" value="- id: string" style="text;strokeColor=none;fillColor=none;align=left;verticalAlign=top;spacingLeft=4;spacingRight=4;overflow=hidden;rotatable=0;points=[[0,0.5],[1,0.5]];portConstraint=eastwest;whiteSpace=wrap;html=1;fontColor=#050505;" parent="R549FV-vUU6F0KCQ6JtP-12" vertex="1">
                    <mxGeometry y="52" width="295" height="26" as="geometry"/>
                </mxCell>
                <mxCell id="R549FV-vUU6F0KCQ6JtP-16" value="" style="line;strokeWidth=1;fillColor=none;align=left;verticalAlign=middle;spacingTop=-1;spacingLeft=3;spacingRight=3;rotatable=0;labelPosition=right;points=[];portConstraint=eastwest;strokeColor=#050505;fontColor=#050505;" parent="R549FV-vUU6F0KCQ6JtP-12" vertex="1">
                    <mxGeometry y="78" width="295" height="8" as="geometry"/>
                </mxCell>
                <mxCell id="R549FV-vUU6F0KCQ6JtP-37" value="+ obtenerNombre( ): string&lt;br&gt;&lt;br&gt;+ obtenerID( ) : string" style="text;strokeColor=none;fillColor=none;align=left;verticalAlign=top;spacingLeft=4;spacingRight=4;overflow=hidden;rotatable=0;points=[[0,0.5],[1,0.5]];portConstraint=eastwest;whiteSpace=wrap;html=1;fontColor=#050505;" parent="R549FV-vUU6F0KCQ6JtP-12" vertex="1">
                    <mxGeometry y="86" width="295" height="62" as="geometry"/>
                </mxCell>
                <mxCell id="R549FV-vUU6F0KCQ6JtP-34" value="n" style="text;align=center;fontStyle=1;verticalAlign=middle;spacingLeft=3;spacingRight=3;strokeColor=none;rotatable=0;points=[[0,0.5],[1,0.5]];portConstraint=eastwest;html=1;fontColor=#050505;" parent="1" vertex="1">
                    <mxGeometry x="375" y="638" width="20" height="26" as="geometry"/>
                </mxCell>
                <mxCell id="R549FV-vUU6F0KCQ6JtP-38" value="&lt;span style=&quot;font-size: 14px;&quot;&gt;Pedido&lt;/span&gt;" style="swimlane;fontStyle=1;align=center;verticalAlign=top;childLayout=stackLayout;horizontal=1;startSize=26;horizontalStack=0;resizeParent=1;resizeParentMax=0;resizeLast=0;collapsible=1;marginBottom=0;whiteSpace=wrap;html=1;strokeColor=#666666;fontColor=#000000;fillColor=#f5f5f5;" parent="1" vertex="1">
                    <mxGeometry x="478" y="309" width="324" height="215" as="geometry"/>
                </mxCell>
                <mxCell id="R549FV-vUU6F0KCQ6JtP-39" value="- nroPedido: string" style="text;strokeColor=none;fillColor=none;align=left;verticalAlign=top;spacingLeft=4;spacingRight=4;overflow=hidden;rotatable=0;points=[[0,0.5],[1,0.5]];portConstraint=eastwest;whiteSpace=wrap;html=1;fontColor=#050505;" parent="R549FV-vUU6F0KCQ6JtP-38" vertex="1">
                    <mxGeometry y="26" width="324" height="26" as="geometry"/>
                </mxCell>
                <mxCell id="eUOE1uEp9aUfxUJo_K6u-10" value="- cliente: Cliente*" style="text;strokeColor=none;fillColor=none;align=left;verticalAlign=top;spacingLeft=4;spacingRight=4;overflow=hidden;rotatable=0;points=[[0,0.5],[1,0.5]];portConstraint=eastwest;whiteSpace=wrap;html=1;fontColor=#050505;" parent="R549FV-vUU6F0KCQ6JtP-38" vertex="1">
                    <mxGeometry y="52" width="324" height="26" as="geometry"/>
                </mxCell>
                <mxCell id="R549FV-vUU6F0KCQ6JtP-41" value="- empleado: Empleado*" style="text;strokeColor=none;fillColor=none;align=left;verticalAlign=top;spacingLeft=4;spacingRight=4;overflow=hidden;rotatable=0;points=[[0,0.5],[1,0.5]];portConstraint=eastwest;whiteSpace=wrap;html=1;fontColor=#050505;" parent="R549FV-vUU6F0KCQ6JtP-38" vertex="1">
                    <mxGeometry y="78" width="324" height="26" as="geometry"/>
                </mxCell>
                <mxCell id="R549FV-vUU6F0KCQ6JtP-40" value="- articulos: Articulo[10]" style="text;strokeColor=none;fillColor=none;align=left;verticalAlign=top;spacingLeft=4;spacingRight=4;overflow=hidden;rotatable=0;points=[[0,0.5],[1,0.5]];portConstraint=eastwest;whiteSpace=wrap;html=1;fontColor=#050505;" parent="R549FV-vUU6F0KCQ6JtP-38" vertex="1">
                    <mxGeometry y="104" width="324" height="26" as="geometry"/>
                </mxCell>
                <mxCell id="R549FV-vUU6F0KCQ6JtP-42" value="" style="line;strokeWidth=1;fillColor=none;align=left;verticalAlign=middle;spacingTop=-1;spacingLeft=3;spacingRight=3;rotatable=0;labelPosition=right;points=[];portConstraint=eastwest;strokeColor=#050505;fontColor=#050505;" parent="R549FV-vUU6F0KCQ6JtP-38" vertex="1">
                    <mxGeometry y="130" width="324" height="8" as="geometry"/>
                </mxCell>
                <mxCell id="R549FV-vUU6F0KCQ6JtP-43" value="+ obtenerNroPedido( ): string" style="text;strokeColor=none;fillColor=none;align=left;verticalAlign=top;spacingLeft=4;spacingRight=4;overflow=hidden;rotatable=0;points=[[0,0.5],[1,0.5]];portConstraint=eastwest;whiteSpace=wrap;html=1;fontColor=#050505;" parent="R549FV-vUU6F0KCQ6JtP-38" vertex="1">
                    <mxGeometry y="138" width="324" height="26" as="geometry"/>
                </mxCell>
                <mxCell id="20" value="&lt;span style=&quot;font-family: Helvetica; font-size: 12px; font-style: normal; font-variant-ligatures: normal; font-variant-caps: normal; font-weight: 400; letter-spacing: normal; orphans: 2; text-align: left; text-indent: 0px; text-transform: none; widows: 2; word-spacing: 0px; -webkit-text-stroke-width: 0px; text-decoration-thickness: initial; text-decoration-style: initial; text-decoration-color: initial; float: none; display: inline !important;&quot;&gt;&amp;nbsp;+ agregarArticulos(Articulo:Articulo* ): void&lt;/span&gt;" style="text;whiteSpace=wrap;html=1;fontSize=11;fontFamily=Helvetica;fontColor=#231f1f;strokeColor=none;labelBackgroundColor=#FFFFFF;" parent="R549FV-vUU6F0KCQ6JtP-38" vertex="1">
                    <mxGeometry y="164" width="324" height="25" as="geometry"/>
                </mxCell>
                <mxCell id="R549FV-vUU6F0KCQ6JtP-45" value="+ verPedido( ): void" style="text;strokeColor=none;fillColor=none;align=left;verticalAlign=top;spacingLeft=4;spacingRight=4;overflow=hidden;rotatable=0;points=[[0,0.5],[1,0.5]];portConstraint=eastwest;whiteSpace=wrap;html=1;fontColor=#050505;" parent="R549FV-vUU6F0KCQ6JtP-38" vertex="1">
                    <mxGeometry y="189" width="324" height="26" as="geometry"/>
                </mxCell>
                <mxCell id="eUOE1uEp9aUfxUJo_K6u-1" value="&lt;span style=&quot;font-size: 14px;&quot;&gt;Cliente&lt;/span&gt;" style="swimlane;fontStyle=1;align=center;verticalAlign=top;childLayout=stackLayout;horizontal=1;startSize=26;horizontalStack=0;resizeParent=1;resizeParentMax=0;resizeLast=0;collapsible=1;marginBottom=0;whiteSpace=wrap;html=1;strokeColor=#666666;fillColor=#f5f5f5;fontColor=#050505;" parent="1" vertex="1">
                    <mxGeometry x="164" y="126" width="283" height="204" as="geometry"/>
                </mxCell>
                <mxCell id="15" value="- nombre: string" style="text;strokeColor=none;fillColor=none;align=left;verticalAlign=top;spacingLeft=4;spacingRight=4;overflow=hidden;rotatable=0;points=[[0,0.5],[1,0.5]];portConstraint=eastwest;whiteSpace=wrap;html=1;fontColor=#050505;" parent="eUOE1uEp9aUfxUJo_K6u-1" vertex="1">
                    <mxGeometry y="26" width="283" height="26" as="geometry"/>
                </mxCell>
                <mxCell id="16" value="- telefono: string" style="text;strokeColor=none;fillColor=none;align=left;verticalAlign=top;spacingLeft=4;spacingRight=4;overflow=hidden;rotatable=0;points=[[0,0.5],[1,0.5]];portConstraint=eastwest;whiteSpace=wrap;html=1;fontColor=#050505;" parent="eUOE1uEp9aUfxUJo_K6u-1" vertex="1">
                    <mxGeometry y="52" width="283" height="26" as="geometry"/>
                </mxCell>
                <mxCell id="17" value="- email: string" style="text;strokeColor=none;fillColor=none;align=left;verticalAlign=top;spacingLeft=4;spacingRight=4;overflow=hidden;rotatable=0;points=[[0,0.5],[1,0.5]];portConstraint=eastwest;whiteSpace=wrap;html=1;fontColor=#050505;" parent="eUOE1uEp9aUfxUJo_K6u-1" vertex="1">
                    <mxGeometry y="78" width="283" height="26" as="geometry"/>
                </mxCell>
                <mxCell id="eUOE1uEp9aUfxUJo_K6u-5" value="" style="line;strokeWidth=1;fillColor=none;align=left;verticalAlign=middle;spacingTop=-1;spacingLeft=3;spacingRight=3;rotatable=0;labelPosition=right;points=[];portConstraint=eastwest;strokeColor=#050505;fontColor=#050505;" parent="eUOE1uEp9aUfxUJo_K6u-1" vertex="1">
                    <mxGeometry y="104" width="283" height="15" as="geometry"/>
                </mxCell>
                <mxCell id="FdKNdc1q4IcvGpZulSzj-7" value="+ obtenerNombre( ): string" style="text;strokeColor=none;fillColor=none;align=left;verticalAlign=top;spacingLeft=4;spacingRight=4;overflow=hidden;rotatable=0;points=[[0,0.5],[1,0.5]];portConstraint=eastwest;whiteSpace=wrap;html=1;fontColor=#050505;" parent="eUOE1uEp9aUfxUJo_K6u-1" vertex="1">
                    <mxGeometry y="119" width="283" height="26" as="geometry"/>
                </mxCell>
                <mxCell id="FdKNdc1q4IcvGpZulSzj-9" value="+ obtenerTelefono( ): string" style="text;strokeColor=none;fillColor=none;align=left;verticalAlign=top;spacingLeft=4;spacingRight=4;overflow=hidden;rotatable=0;points=[[0,0.5],[1,0.5]];portConstraint=eastwest;whiteSpace=wrap;html=1;fontColor=#050505;" parent="eUOE1uEp9aUfxUJo_K6u-1" vertex="1">
                    <mxGeometry y="145" width="283" height="26" as="geometry"/>
                </mxCell>
                <mxCell id="FdKNdc1q4IcvGpZulSzj-8" value="+ obtenerEmail( ): string" style="text;strokeColor=none;fillColor=none;align=left;verticalAlign=top;spacingLeft=4;spacingRight=4;overflow=hidden;rotatable=0;points=[[0,0.5],[1,0.5]];portConstraint=eastwest;whiteSpace=wrap;html=1;fontColor=#050505;" parent="eUOE1uEp9aUfxUJo_K6u-1" vertex="1">
                    <mxGeometry y="171" width="283" height="33" as="geometry"/>
                </mxCell>
                <mxCell id="eUOE1uEp9aUfxUJo_K6u-15" value="1" style="text;align=center;fontStyle=1;verticalAlign=middle;spacingLeft=3;spacingRight=3;strokeColor=none;rotatable=0;points=[[0,0.5],[1,0.5]];portConstraint=eastwest;html=1;fontColor=#050505;" parent="1" vertex="1">
                    <mxGeometry x="589" y="588" width="20" height="26" as="geometry"/>
                </mxCell>
                <mxCell id="eUOE1uEp9aUfxUJo_K6u-16" value="1" style="text;align=center;fontStyle=1;verticalAlign=middle;spacingLeft=3;spacingRight=3;strokeColor=none;rotatable=0;points=[[0,0.5],[1,0.5]];portConstraint=eastwest;html=1;fontColor=#050505;" parent="1" vertex="1">
                    <mxGeometry x="655" y="259" width="20" height="26" as="geometry"/>
                </mxCell>
                <mxCell id="9" style="edgeStyle=orthogonalEdgeStyle;shape=connector;rounded=0;html=1;exitX=1;exitY=0.5;exitDx=0;exitDy=0;labelBackgroundColor=default;strokeColor=#050505;fontFamily=Helvetica;fontSize=11;fontColor=#050505;endArrow=diamondThin;endFill=0;endSize=24;" parent="1" source="FdKNdc1q4IcvGpZulSzj-7" target="R549FV-vUU6F0KCQ6JtP-38" edge="1">
                    <mxGeometry relative="1" as="geometry"/>
                </mxCell>
                <mxCell id="11" value="1" style="text;align=center;fontStyle=1;verticalAlign=middle;spacingLeft=3;spacingRight=3;strokeColor=none;rotatable=0;points=[[0,0.5],[1,0.5]];portConstraint=eastwest;html=1;fontColor=#050505;" parent="1" vertex="1">
                    <mxGeometry x="454" y="224" width="20" height="26" as="geometry"/>
                </mxCell>
                <mxCell id="12" style="edgeStyle=orthogonalEdgeStyle;shape=connector;rounded=0;html=1;labelBackgroundColor=default;strokeColor=#050505;fontFamily=Helvetica;fontSize=11;fontColor=#050505;endArrow=diamondThin;endFill=0;endSize=24;" parent="1" source="R549FV-vUU6F0KCQ6JtP-16" target="R549FV-vUU6F0KCQ6JtP-41" edge="1">
                    <mxGeometry relative="1" as="geometry"/>
                </mxCell>
                <mxCell id="13" value="1" style="text;align=center;fontStyle=1;verticalAlign=middle;spacingLeft=3;spacingRight=3;strokeColor=none;rotatable=0;points=[[0,0.5],[1,0.5]];portConstraint=eastwest;html=1;fontColor=#050505;" parent="1" vertex="1">
                    <mxGeometry x="438" y="353" width="20" height="26" as="geometry"/>
                </mxCell>
                <mxCell id="14" value="1" style="text;align=center;fontStyle=1;verticalAlign=middle;spacingLeft=3;spacingRight=3;strokeColor=none;rotatable=0;points=[[0,0.5],[1,0.5]];portConstraint=eastwest;html=1;fontColor=#050505;" parent="1" vertex="1">
                    <mxGeometry x="366" y="443" width="20" height="26" as="geometry"/>
                </mxCell>
            </root>
        </mxGraphModel>
    </diagram>
</mxfile>